<?xml version="1.0" encoding="UTF-8" standalone="no"?>
<!-- Created with Inkscape (http://www.inkscape.org/) -->

<svg
   xmlns:dc="http://purl.org/dc/elements/1.1/"
   xmlns:cc="http://creativecommons.org/ns#"
   xmlns:rdf="http://www.w3.org/1999/02/22-rdf-syntax-ns#"
   xmlns:svg="http://www.w3.org/2000/svg"
   xmlns="http://www.w3.org/2000/svg"
   xmlns:sodipodi="http://sodipodi.sourceforge.net/DTD/sodipodi-0.dtd"
   xmlns:inkscape="http://www.inkscape.org/namespaces/inkscape"
   id="svg3355"
   version="1.1"
   inkscape:version="0.91 r13725"
   xml:space="preserve"
   width="500.26251"
   height="280.1875"
   viewBox="0 0 500.26251 280.1875"
   sodipodi:docname="ccilogo.svg"><metadata
     id="metadata3361"><rdf:RDF><cc:Work
         rdf:about=""><dc:format>image/svg+xml</dc:format><dc:type
           rdf:resource="http://purl.org/dc/dcmitype/StillImage" /><dc:title></dc:title></cc:Work></rdf:RDF></metadata><defs
     id="defs3359" /><sodipodi:namedview
     pagecolor="#ffffff"
     bordercolor="#666666"
     borderopacity="1"
     objecttolerance="10"
     gridtolerance="10"
     guidetolerance="10"
     inkscape:pageopacity="0"
     inkscape:pageshadow="2"
     inkscape:window-width="1920"
     inkscape:window-height="1056"
     id="namedview3357"
     showgrid="false"
     inkscape:zoom="3.2799465"
     inkscape:cx="250.13126"
     inkscape:cy="140.09375"
     inkscape:window-x="0"
     inkscape:window-y="24"
     inkscape:window-maximized="1"
     inkscape:current-layer="g3363" /><g
     id="g3363"
     inkscape:groupmode="layer"
     inkscape:label="ink_ext_XXXXXX"
     transform="matrix(1.25,0,0,-1.25,0,280.1875)"><g
       id="g3365"
       transform="scale(0.1,0.1)"><path
         d="m 820.578,1520.65 c 0,-12.59 0.25,-14.27 7.199,-14.98 l 3.828,-0.34 c 0.711,-0.51 0.481,-2.66 -0.25,-3 -6.82,0.22 -10.898,0.34 -15.679,0.34 -4.809,0 -8.988,-0.12 -16.66,-0.34 -0.711,0.34 -0.938,2.39 0,3 l 4.312,0.34 c 6.84,0.6 7.449,2.39 7.449,14.98 l 0,53.54 c 0,3.71 0,3.83 -3.609,3.83 l -6.57,0 c -5.172,0 -11.75,-0.24 -14.75,-2.99 -2.871,-2.64 -4.082,-5.25 -5.391,-8.28 -0.949,-0.71 -2.629,-0.11 -3.102,0.84 1.903,5.41 3.711,13.07 4.54,17.86 0.382,0.25 1.921,0.35 2.273,0 0.707,-3.81 4.68,-3.72 10.187,-3.72 l 48.512,0 c 6.461,0 7.551,0.26 9.348,3.38 0.59,0.23 1.902,0.1 2.152,-0.39 -1.332,-4.88 -2.152,-14.61 -1.801,-18.2 -0.488,-0.96 -2.519,-0.96 -3.109,-0.25 -0.359,3.01 -1.191,7.44 -2.98,8.76 -2.762,2.04 -7.332,2.99 -13.911,2.99 l -8.5,0 c -3.609,0 -3.488,-0.12 -3.488,-4.08"
         style="fill:#000066;fill-opacity:1;fill-rule:nonzero;stroke:none"
         id="path3367"
         inkscape:connector-curvature="0" /><path
         d="m 898.727,1541.36 c -5.782,0 -6.02,-0.22 -6.02,-3.83 l 0,-16.88 c 0,-12.59 0.609,-14.27 7.32,-14.98 l 3.489,-0.35 c 0.699,-0.5 0.461,-2.65 -0.258,-2.99 -6.453,0.22 -10.551,0.34 -15.211,0.34 -5.16,0 -9.219,-0.25 -13.902,-0.34 -0.707,0.34 -0.969,2.26 -0.219,2.99 l 2.031,0.35 c 6.699,1.18 6.93,2.39 6.93,14.98 l 0,43.1 c 0,12.59 -0.84,14.64 -7.051,15.12 l -3.129,0.2 c -0.711,0.51 -0.48,2.66 0.25,3.02 5.871,-0.1 9.93,-0.36 15.09,-0.36 4.66,0 8.758,0.12 13.879,0.36 0.75,-0.36 0.98,-2.51 0.262,-3.02 l -2.282,-0.2 c -6.961,-0.73 -7.199,-2.53 -7.199,-15.12 l 0,-13.78 c 0,-3.69 0.238,-3.82 6.02,-3.82 l 34.238,0 c 5.75,0 5.98,0.13 5.98,3.82 l 0,13.78 c 0,12.59 -0.23,14.39 -7.289,15.12 l -2.289,0.2 c -0.699,0.51 -0.461,2.66 0.258,3.02 5.5,-0.24 9.57,-0.36 14.48,-0.36 4.68,0 8.75,0.12 14.141,0.36 0.711,-0.36 0.961,-2.51 0.231,-3.02 l -2.512,-0.2 c -6.949,-0.73 -7.18,-2.53 -7.18,-15.12 l 0,-43.1 c 0,-12.59 0.231,-14.13 7.18,-14.98 l 2.883,-0.35 c 0.699,-0.5 0.48,-2.65 -0.243,-2.99 -5.75,0.22 -9.82,0.34 -14.5,0.34 -4.91,0 -9.23,-0.12 -14.48,-0.34 -0.719,0.34 -0.957,2.26 -0.258,2.99 l 2.289,0.35 c 7.289,0.95 7.059,2.39 7.289,14.98 l 0,16.88 c 0,3.61 -0.23,3.83 -5.98,3.83"
         style="fill:#000066;fill-opacity:1;fill-rule:nonzero;stroke:none"
         id="path3369"
         inkscape:connector-curvature="0" /><path
         d="m 991.457,1563.75 c 0,12.47 -0.242,14.27 -7.312,15.12 l -1.93,0.2 c -0.707,0.51 -0.469,2.66 0.262,3.02 5.128,-0.24 9.199,-0.36 14.121,-0.36 l 22.522,0 c 7.67,0 14.72,0 16.17,0.36 0.72,-2.03 1.44,-10.66 1.91,-15.95 -0.47,-0.7 -2.4,-0.95 -2.99,-0.22 -1.79,5.63 -2.87,9.82 -9.11,11.37 -2.51,0.6 -6.34,0.73 -11.62,0.73 l -8.62,0 c -3.59,0 -3.59,-0.25 -3.59,-4.79 l 0,-23.96 c 0,-3.36 0.37,-3.36 3.96,-3.36 l 6.94,0 c 5.03,0 8.74,0.23 10.19,0.71 1.44,0.5 2.27,1.18 2.87,4.2 l 0.96,4.91 c 0.6,0.71 2.64,0.71 3.1,-0.11 0,-2.88 -0.46,-7.54 -0.46,-12.09 0,-4.32 0.46,-8.88 0.46,-11.51 -0.46,-0.82 -2.5,-0.82 -3.1,-0.14 l -1.09,4.71 c -0.47,2.13 -1.3,3.93 -3.71,4.54 -1.68,0.48 -4.54,0.6 -9.22,0.6 l -6.94,0 c -3.59,0 -3.96,-0.12 -3.96,-3.24 l 0,-16.9 c 0,-6.34 0.37,-10.43 2.28,-12.46 1.45,-1.43 3.95,-2.75 14.49,-2.75 9.23,0 12.69,0.47 15.33,1.79 2.17,1.21 5.39,5.39 8.51,11.62 0.83,0.61 2.51,0.26 3,-0.83 -0.85,-4.2 -3.85,-13.41 -5.4,-16.64 -10.77,0.23 -21.44,0.35 -32.09,0.35 l -10.792,0 c -5.141,0 -9.223,-0.12 -16.293,-0.35 -0.707,0.35 -0.957,2.27 -0.258,3 l 3.969,0.34 c 6.832,0.6 7.441,2.4 7.441,14.98"
         style="fill:#000066;fill-opacity:1;fill-rule:nonzero;stroke:none"
         id="path3371"
         inkscape:connector-curvature="0" /><path
         d="m 1172.48,1551.67 c 0,7.42 -0.25,21.19 -2.28,24.8 -0.85,1.42 -2.99,2.27 -5.99,2.51 l -2.98,0.23 c -0.73,0.85 -0.5,2.42 0.22,2.88 4.57,-0.24 9,-0.36 13.67,-0.36 5.04,0 8.26,0.12 12.56,0.36 0.96,-0.62 0.84,-2.15 0.24,-2.88 l -2.87,-0.23 c -2.98,-0.24 -5.38,-1.31 -6,-2.88 -1.78,-3.94 -1.67,-17.74 -1.67,-24.43 l 0,-13.55 c 0,-10.41 -1.67,-21.43 -8.4,-28.62 -5.13,-5.64 -13.98,-8.73 -22.87,-8.73 -8.25,0 -16.52,1.55 -22.4,6.56 -6.33,5.3 -9.32,14.01 -9.32,28.3 l 0,28.26 c 0,12.45 -0.25,14.5 -7.2,15.09 l -2.99,0.23 c -0.7,0.47 -0.49,2.52 0.23,2.88 6,-0.24 10.07,-0.36 14.87,-0.36 4.91,0 8.84,0.12 14.73,0.36 0.72,-0.36 0.95,-2.41 0.23,-2.88 l -2.87,-0.23 c -6.96,-0.59 -7.18,-2.64 -7.18,-15.09 l 0,-25.88 c 0,-19.31 5.98,-32 24.31,-32 17.37,0 23.96,13.68 23.96,31.88"
         style="fill:#000066;fill-opacity:1;fill-rule:nonzero;stroke:none"
         id="path3373"
         inkscape:connector-curvature="0" /><path
         d="m 1281.14,1523.06 c 0,-3.59 0,-17.87 0.36,-20.98 -0.24,-0.71 -0.97,-1.31 -2.26,-1.31 -1.45,2.02 -4.94,6.2 -15.36,18.07 l -27.77,31.64 c -3.24,3.7 -11.4,13.52 -13.91,16.15 l -0.24,0 c -0.48,-1.44 -0.59,-4.18 -0.59,-7.77 l 0,-26.11 c 0,-5.66 0.25,-21.21 2.16,-24.81 0.84,-1.32 3.1,-2.03 6.1,-2.27 l 3.71,-0.34 c 0.71,-0.96 0.6,-2.41 -0.24,-3 -5.39,0.22 -9.57,0.34 -14.01,0.34 -5.04,0 -8.27,-0.12 -12.45,-0.34 -0.84,0.59 -0.96,2.26 -0.25,3 l 3.24,0.34 c 2.75,0.24 4.66,1.07 5.26,2.39 1.69,4.32 1.56,18.95 1.56,24.69 l 0,34.59 c 0,3.38 -0.12,5.9 -2.63,8.65 -1.68,1.68 -4.55,2.52 -7.43,2.88 l -2.04,0.21 c -0.71,0.76 -0.71,2.55 0.26,3.01 5.02,-0.36 11.37,-0.36 13.52,-0.36 1.92,0 3.96,0.12 5.5,0.36 2.4,-6.1 16.66,-21.94 20.49,-26.35 l 11.61,-13.05 c 8.15,-9.34 14.16,-15.92 19.78,-21.7 l 0.23,0 c 0.5,0.61 0.5,2.52 0.5,5.05 l 0,25.63 c 0,5.64 -0.13,21.19 -2.39,24.81 -0.74,1.07 -2.64,1.79 -7.46,2.39 l -2.03,0.21 c -0.83,0.76 -0.72,2.65 0.25,3.01 5.5,-0.24 9.6,-0.36 14.12,-0.36 5.16,0 8.27,0.12 12.34,0.36 0.97,-0.61 0.97,-2.25 0.27,-3.01 l -1.7,-0.21 c -3.82,-0.6 -6.22,-1.57 -6.7,-2.53 -2.05,-4.32 -1.8,-19.16 -1.8,-24.67"
         style="fill:#000066;fill-opacity:1;fill-rule:nonzero;stroke:none"
         id="path3375"
         inkscape:connector-curvature="0" /><path
         d="m 1322.5,1563.51 c 0,12.71 -0.24,14.77 -7.31,15.36 l -3,0.21 c -0.73,0.5 -0.48,2.65 0.23,3.01 6,-0.24 10.08,-0.36 15.09,-0.36 4.79,0 8.88,0.12 14.87,0.36 0.72,-0.36 0.96,-2.51 0.24,-3.01 l -2.99,-0.21 c -7.09,-0.59 -7.33,-2.65 -7.33,-15.36 l 0,-42.64 c 0,-12.69 0.24,-14.35 7.33,-15.2 l 2.99,-0.34 c 0.72,-0.51 0.48,-2.66 -0.24,-3 -5.99,0.22 -10.08,0.34 -14.87,0.34 -5.01,0 -9.09,-0.12 -15.09,-0.34 -0.71,0.34 -0.96,2.26 -0.23,3 l 3,0.34 c 7.07,0.85 7.31,2.51 7.31,15.2"
         style="fill:#000066;fill-opacity:1;fill-rule:nonzero;stroke:none"
         id="path3377"
         inkscape:connector-curvature="0" /><path
         d="m 1371.62,1569.04 c -2.75,6.71 -4.57,9.24 -9.71,9.83 l -2.17,0.21 c -0.82,0.76 -0.7,2.4 0.26,3.02 3.48,-0.25 7.3,-0.36 12.46,-0.36 5.25,0 9.46,0.11 14.49,0.36 0.84,-0.46 1.08,-2.26 0.24,-3.02 l -1.8,-0.21 c -4.54,-0.59 -5.5,-1.31 -5.64,-2.27 0.23,-1.19 2.29,-7.68 6,-16.8 5.52,-13.89 11.03,-27.64 17,-41.32 3.71,7.9 8.87,20.25 11.51,26.61 3.59,8.13 9.1,21.66 11.13,26.82 0.96,2.52 1.09,3.84 1.09,4.69 0,0.84 -1.21,1.8 -5.41,2.27 l -2.15,0.21 c -0.84,0.76 -0.58,2.56 0.25,3.02 3.35,-0.25 7.92,-0.36 12.46,-0.36 3.95,0 7.67,0.11 11.63,0.36 0.82,-0.46 0.82,-2.42 0.23,-3.02 l -3.6,-0.21 c -2.87,-0.24 -4.68,-1.69 -6.23,-4.2 -3.36,-5.63 -8.02,-15.32 -13.41,-27.54 l -6.48,-14.73 c -4.78,-11.06 -10.41,-24.92 -12.45,-31.27 -0.36,-0.25 -0.86,-0.35 -1.3,-0.35 -0.61,0 -1.22,0.1 -1.81,0.35 -1.32,5.02 -3.36,10.89 -5.53,15.94"
         style="fill:#000066;fill-opacity:1;fill-rule:nonzero;stroke:none"
         id="path3379"
         inkscape:connector-curvature="0" /><path
         d="m 1467.95,1563.75 c 0,12.47 -0.24,14.27 -7.31,15.12 l -1.93,0.2 c -0.7,0.51 -0.45,2.66 0.25,3.02 5.14,-0.24 9.21,-0.36 14.14,-0.36 l 22.51,0 c 7.67,0 14.73,0 16.17,0.36 0.73,-2.03 1.43,-10.66 1.91,-15.95 -0.48,-0.7 -2.39,-0.95 -2.99,-0.22 -1.79,5.63 -2.87,9.82 -9.1,11.37 -2.52,0.6 -6.34,0.73 -11.62,0.73 l -8.61,0 c -3.6,0 -3.6,-0.25 -3.6,-4.79 l 0,-23.96 c 0,-3.36 0.36,-3.36 3.94,-3.36 l 6.95,0 c 5.04,0 8.75,0.23 10.19,0.71 1.44,0.5 2.28,1.18 2.88,4.2 l 0.96,4.91 c 0.59,0.71 2.63,0.71 3.11,-0.11 0,-2.88 -0.48,-7.54 -0.48,-12.09 0,-4.32 0.48,-8.88 0.48,-11.51 -0.48,-0.82 -2.52,-0.82 -3.11,-0.14 l -1.09,4.71 c -0.47,2.13 -1.31,3.93 -3.71,4.54 -1.69,0.48 -4.55,0.6 -9.23,0.6 l -6.95,0 c -3.58,0 -3.94,-0.12 -3.94,-3.24 l 0,-16.9 c 0,-6.34 0.36,-10.43 2.28,-12.46 1.43,-1.43 3.93,-2.75 14.49,-2.75 9.22,0 12.69,0.47 15.33,1.79 2.16,1.21 5.38,5.39 8.51,11.62 0.82,0.61 2.51,0.26 2.99,-0.83 -0.84,-4.2 -3.83,-13.41 -5.39,-16.64 -10.78,0.23 -21.44,0.35 -32.1,0.35 l -10.78,0 c -5.15,0 -9.24,-0.12 -16.3,-0.35 -0.71,0.35 -0.94,2.27 -0.25,3 l 3.98,0.34 c 6.81,0.6 7.42,2.4 7.42,14.98"
         style="fill:#000066;fill-opacity:1;fill-rule:nonzero;stroke:none"
         id="path3381"
         inkscape:connector-curvature="0" /><path
         d="m 1559.71,1546.53 c 0,-2.15 0,-3.49 0.36,-3.96 0.35,-0.36 2.14,-0.6 8.26,-0.6 4.31,0 8.87,0.47 12.33,3.12 3.23,2.49 6.01,6.7 6.01,14.85 0,9.47 -5.88,18.46 -19.17,18.46 -7.43,0 -7.79,-0.5 -7.79,-3.84 l 0,-28.03 z m -9.81,17.11 c 0,11.39 -0.37,13.42 -5.28,14.02 l -3.85,0.47 c -0.83,0.61 -0.83,2.52 0.12,3 6.73,0.6 14.98,0.96 26.72,0.96 7.43,0 14.49,-0.62 20.02,-3.59 5.73,-2.99 9.92,-8.4 9.92,-16.78 0,-11.38 -8.96,-17.57 -14.96,-19.99 -0.58,-0.73 0,-1.92 0.61,-2.88 9.57,-15.46 15.91,-25.04 24.07,-31.89 2.03,-1.78 5.03,-3.11 8.25,-3.36 0.61,-0.22 0.72,-1.18 0.12,-1.64 -1.09,-0.37 -3,-0.6 -5.26,-0.6 -10.18,0 -16.28,3 -24.78,15.08 -3.14,4.43 -8.05,12.71 -11.76,18.1 -1.8,2.61 -3.71,3.83 -8.49,3.83 -5.4,0 -5.64,-0.14 -5.64,-2.65 l 0,-15.08 c 0,-12.59 0.24,-14.02 7.2,-14.98 l 2.52,-0.34 c 0.7,-0.61 0.46,-2.66 -0.26,-3 -5.39,0.23 -9.46,0.34 -14.25,0.34 -5.03,0 -9.34,-0.11 -14.98,-0.34 -0.71,0.34 -0.95,2.15 -0.24,3 l 3,0.34 c 6.94,0.85 7.19,2.39 7.19,14.98"
         style="fill:#000066;fill-opacity:1;fill-rule:nonzero;stroke:none"
         id="path3383"
         inkscape:connector-curvature="0" /><path
         d="m 1650.64,1500.77 c -10.06,0 -16.4,3.09 -18.68,4.41 -1.44,2.63 -3,11.15 -3.23,16.76 0.6,0.85 2.4,1.12 2.87,0.37 1.81,-6.11 6.72,-17.84 20.6,-17.84 10.07,0 14.98,6.58 14.98,13.78 0,5.25 -1.08,11.14 -9.82,16.76 l -11.4,7.42 c -5.98,3.97 -12.92,10.78 -12.92,20.63 0,11.36 8.85,20.58 24.44,20.58 3.72,0 8.01,-0.6 11.15,-1.55 1.54,-0.36 3.22,-0.71 4.17,-0.71 1.08,-2.88 2.16,-9.59 2.16,-14.63 -0.47,-0.72 -2.41,-1.08 -3,-0.35 -1.54,5.76 -4.78,13.54 -16.28,13.54 -11.74,0 -14.24,-7.78 -14.24,-13.31 0,-6.95 5.73,-11.86 10.16,-14.72 l 9.6,-6 c 7.54,-4.66 14.97,-11.62 14.97,-23 0,-13.18 -9.94,-22.14 -25.53,-22.14"
         style="fill:#000066;fill-opacity:1;fill-rule:nonzero;stroke:none"
         id="path3385"
         inkscape:connector-curvature="0" /><path
         d="m 1709.71,1563.51 c 0,12.71 -0.23,14.77 -7.29,15.36 l -3,0.21 c -0.72,0.5 -0.49,2.65 0.24,3.01 5.98,-0.24 10.05,-0.36 15.1,-0.36 4.77,0 8.87,0.12 14.84,0.36 0.73,-0.36 0.95,-2.51 0.25,-3.01 l -3,-0.21 c -7.07,-0.59 -7.32,-2.65 -7.32,-15.36 l 0,-42.64 c 0,-12.69 0.25,-14.35 7.32,-15.2 l 3,-0.34 c 0.7,-0.51 0.48,-2.66 -0.25,-3 -5.97,0.22 -10.07,0.34 -14.84,0.34 -5.05,0 -9.12,-0.12 -15.1,-0.34 -0.73,0.34 -0.96,2.26 -0.24,3 l 3,0.34 c 7.06,0.85 7.29,2.51 7.29,15.2"
         style="fill:#000066;fill-opacity:1;fill-rule:nonzero;stroke:none"
         id="path3387"
         inkscape:connector-curvature="0" /><path
         d="m 1790.95,1520.65 c 0,-12.59 0.23,-14.27 7.18,-14.98 l 3.85,-0.34 c 0.69,-0.51 0.46,-2.66 -0.27,-3 -6.82,0.22 -10.88,0.34 -15.68,0.34 -4.8,0 -8.99,-0.12 -16.64,-0.34 -0.72,0.34 -0.96,2.39 0,3 l 4.29,0.34 c 6.85,0.6 7.45,2.39 7.45,14.98 l 0,53.54 c 0,3.71 0,3.83 -3.6,3.83 l -6.58,0 c -5.17,0 -11.74,-0.24 -14.74,-2.99 -2.88,-2.64 -4.07,-5.25 -5.41,-8.28 -0.94,-0.71 -2.61,-0.11 -3.09,0.84 1.9,5.41 3.71,13.07 4.54,17.86 0.36,0.25 1.92,0.35 2.27,0 0.73,-3.81 4.69,-3.72 10.19,-3.72 l 48.5,0 c 6.48,0 7.55,0.26 9.34,3.38 0.61,0.23 1.93,0.1 2.18,-0.39 -1.32,-4.88 -2.18,-14.61 -1.8,-18.2 -0.48,-0.96 -2.52,-0.96 -3.13,-0.25 -0.35,3.01 -1.18,7.44 -3,8.76 -2.75,2.04 -7.29,2.99 -13.88,2.99 l -8.49,0 c -3.6,0 -3.48,-0.12 -3.48,-4.08"
         style="fill:#000066;fill-opacity:1;fill-rule:nonzero;stroke:none"
         id="path3389"
         inkscape:connector-curvature="0" /><path
         d="m 1879.59,1520.87 c 0,-12.81 0.73,-14.73 7.2,-15.21 l 4.53,-0.34 c 0.73,-0.73 0.51,-2.65 -0.24,-2.99 -7.4,0.22 -11.49,0.34 -16.28,0.34 -5.03,0 -9.34,-0.12 -15.68,-0.34 -0.71,0.34 -0.98,2.26 -0.26,2.99 l 3.75,0.34 c 6.93,0.72 7.16,2.4 7.16,15.21 l 0,6.13 c 0,6.58 -0.36,8.13 -3.81,14.83 l -14.13,27.58 c -4.1,7.89 -5.9,8.48 -9.49,9.1 l -3.35,0.56 c -0.72,0.87 -0.6,2.56 0.25,3.02 3.84,-0.24 8.13,-0.36 13.89,-0.36 5.5,0 9.83,0.12 12.83,0.36 1.06,-0.36 1.06,-2.26 0.34,-3.02 l -1.54,-0.2 c -4.21,-0.73 -5.03,-1.2 -5.03,-2.17 0,-1.18 3.1,-8.04 3.7,-9.25 4.43,-8.85 8.87,-18.3 13.53,-26.56 3.71,6.33 7.68,13.29 11.27,20.21 3.35,6.23 7.78,14.42 7.78,15.84 0,0.73 -2.15,1.57 -5.03,1.93 l -2.15,0.2 c -0.85,0.87 -0.73,2.56 0.24,3.02 4.3,-0.24 7.78,-0.36 11.5,-0.36 3.7,0 7.05,0.12 11.13,0.36 0.98,-0.61 1.07,-2.26 0.23,-3.02 l -3.35,-0.56 c -6.22,-0.96 -9.82,-8.64 -15.8,-18.94 l -7.54,-13.05 c -5.39,-8.99 -5.65,-10.18 -5.65,-19.43"
         style="fill:#000066;fill-opacity:1;fill-rule:nonzero;stroke:none"
         id="path3391"
         inkscape:connector-curvature="0" /><path
         d="m 2039.79,1538.86 c 0,19.75 -8.75,41.08 -31.65,41.08 -12.43,0 -28.6,-8.51 -28.6,-34.73 0,-17.76 8.63,-40.73 32.22,-40.73 14.37,0 28.03,10.78 28.03,34.38 m -72.24,2.5 c 0,23.95 17.96,42.29 42.66,42.29 27.67,0 41.55,-20 41.55,-41.08 0,-24.2 -18.43,-41.8 -41.55,-41.8 -26.61,0 -42.66,19.03 -42.66,40.59"
         style="fill:#000066;fill-opacity:1;fill-rule:nonzero;stroke:none"
         id="path3393"
         inkscape:connector-curvature="0" /><path
         d="m 2094.44,1547.94 c 0,-3.22 0.35,-3.22 3.96,-3.22 l 8.13,0 c 4.9,0 8.76,0.23 10.18,0.71 1.31,0.48 2.27,1.09 3,4.19 l 1.08,4.78 c 0.58,0.74 2.64,0.74 3.1,0 0,-2.85 -0.46,-7.65 -0.46,-12.08 0,-4.31 0.46,-8.85 0.46,-11.63 -0.46,-0.7 -2.25,-0.7 -3.1,0 l -1.2,4.69 c -0.46,2.15 -1.57,3.83 -3.83,4.55 -1.68,0.47 -4.68,0.59 -9.23,0.59 l -8.13,0 c -3.61,0 -3.96,-0.12 -3.96,-3.24 l 0,-16.63 c 0,-12.59 0.23,-14.39 7.31,-14.99 l 4.05,-0.34 c 0.73,-0.51 0.5,-2.65 -0.23,-3 -7.07,0.23 -11.13,0.35 -15.93,0.35 -5.28,0 -9.34,-0.12 -14.98,-0.35 -0.71,0.35 -0.95,2.27 -0.24,3 l 3.01,0.34 c 6.93,0.85 7.2,2.4 7.2,14.99 l 0,43.1 c 0,12.59 -0.27,14.27 -7.2,15.12 l -1.92,0.2 c -0.72,0.51 -0.48,2.66 0.23,3.02 5.04,-0.24 9.11,-0.36 13.9,-0.36 l 22.05,0 c 7.63,0 14.61,0 16.17,0.36 0,-5.5 0.12,-11.26 0.35,-15.83 -0.35,-0.7 -2.03,-1.07 -2.88,-0.34 -0.96,5.39 -2.39,9.71 -8.38,11.38 -2.63,0.59 -6.58,0.72 -11.63,0.72 l -7.29,0 c -3.59,0 -3.59,-0.25 -3.59,-4.79"
         style="fill:#000066;fill-opacity:1;fill-rule:nonzero;stroke:none"
         id="path3395"
         inkscape:connector-curvature="0" /><path
         d="m 2234.25,1534.65 c 2.75,-5.62 5.38,-11.14 8.26,-16.4 l 0.24,0 c 3.24,5.62 6.25,11.84 9.23,17.97 l 11.23,22.87 c 5.54,10.92 8.9,17.5 9.13,23 4.07,-0.36 6.6,-0.36 8.98,-0.36 3.01,0 6.96,0.12 10.66,0.36 0.72,-0.46 0.72,-2.51 0.12,-3.02 l -2.52,-0.2 c -7.54,-0.85 -8.49,-3.02 -8.37,-11.42 0.25,-12.67 0.34,-34.81 1.32,-52.08 0.34,-5.98 0.23,-9.11 5.87,-9.7 l 3.84,-0.35 c 0.7,-0.73 0.58,-2.54 -0.26,-2.99 -4.91,0.22 -9.82,0.34 -14.12,0.34 -4.21,0 -9.61,-0.12 -14.5,-0.34 -0.84,0.59 -0.96,2.26 -0.24,2.99 l 3.47,0.35 c 5.87,0.59 5.87,2.51 5.87,10.18 l -0.35,49.96 -0.24,0 c -0.85,-1.35 -5.41,-10.92 -7.8,-15.58 l -10.64,-20.97 c -5.39,-10.56 -10.8,-21.79 -12.93,-27.3 -0.26,-0.37 -0.74,-0.48 -1.21,-0.48 -0.24,0 -0.84,0.11 -1.09,0.48 -2.04,6.33 -7.8,18.09 -10.53,23.95 l -10.78,23.11 c -2.52,5.52 -5.03,11.73 -7.66,17.24 l -0.25,0 c -0.47,-7.4 -0.84,-14.34 -1.19,-21.31 -0.37,-7.28 -0.85,-17.95 -0.85,-28.14 0,-8.87 0.71,-10.8 5.4,-11.14 l 4.55,-0.35 c 0.84,-0.73 0.71,-2.65 -0.12,-2.99 -4.07,0.22 -8.74,0.34 -13.31,0.34 -3.82,0 -8.14,-0.12 -12.21,-0.34 -0.73,0.59 -0.95,2.39 -0.24,2.99 l 2.63,0.35 c 5.03,0.59 6.71,1.45 7.44,9.81 0.71,7.91 1.29,14.51 2.03,26.35 0.6,9.96 1.07,20.11 1.32,26.72 0.24,7.56 -0.72,9.12 -8.01,10.32 l -1.96,0.2 c -0.56,0.77 -0.44,2.56 0.49,3.02 3.62,-0.24 6.49,-0.36 9.48,-0.36 2.75,0 5.99,0 9.94,0.36 -0.48,-4.66 2.52,-12.08 6.23,-19.77"
         style="fill:#000066;fill-opacity:1;fill-rule:nonzero;stroke:none"
         id="path3397"
         inkscape:connector-curvature="0" /><path
         d="m 2333.93,1541.14 c -0.97,-2.76 -0.84,-2.9 2.52,-2.9 l 14.73,0 c 3.49,0 3.73,0.49 2.62,3.73 l -6.45,19.53 c -0.96,2.85 -2.05,6.1 -2.76,7.54 l -0.23,0 c -0.38,-0.61 -1.56,-3.48 -2.88,-7.09 l -7.55,-20.81 z m 23.71,-10.69 c -0.82,2.64 -1.32,3.01 -4.91,3.01 l -18.07,0 c -3,0 -3.72,-0.37 -4.56,-2.89 l -4.19,-12.57 c -1.78,-5.38 -2.64,-8.62 -2.64,-9.95 0,-1.43 0.6,-2.14 3.46,-2.39 l 3.98,-0.34 c 0.83,-0.61 0.83,-2.54 -0.25,-3 -3.11,0.23 -6.82,0.23 -12.45,0.34 -3.96,0 -8.28,-0.24 -11.51,-0.34 -0.71,0.46 -0.96,2.39 -0.23,3 l 3.94,0.34 c 2.88,0.25 5.52,1.53 7.18,5.87 2.16,5.53 5.53,13.32 10.56,26.7 l 12.21,32.36 c 1.68,4.32 2.39,6.58 2.04,8.48 2.88,0.87 4.91,3.02 6.22,4.57 0.72,0 1.56,-0.25 1.79,-1.07 1.56,-5.28 3.5,-10.79 5.3,-16.06 l 16.38,-48.14 c 3.49,-10.32 5.07,-12.11 10.18,-12.71 l 3.26,-0.34 c 0.83,-0.61 0.61,-2.54 0,-3 -4.94,0.23 -9.1,0.34 -14.49,0.34 -5.76,0 -10.32,-0.24 -13.79,-0.34 -0.95,0.46 -1.07,2.39 -0.23,3 l 3.48,0.34 c 2.5,0.25 4.2,0.96 4.2,2.15 0,1.32 -0.62,3.49 -1.59,6.35"
         style="fill:#000066;fill-opacity:1;fill-rule:nonzero;stroke:none"
         id="path3399"
         inkscape:connector-curvature="0" /><path
         d="m 2410.87,1563.51 c 0,12.71 -0.25,14.77 -7.33,15.36 l -2.99,0.21 c -0.7,0.5 -0.46,2.65 0.25,3.01 5.99,-0.24 10.07,-0.36 15.09,-0.36 4.78,0 8.87,0.12 14.84,0.36 0.75,-0.36 0.97,-2.51 0.25,-3.01 l -3,-0.21 c -7.06,-0.59 -7.31,-2.65 -7.31,-15.36 l 0,-42.64 c 0,-12.69 0.25,-14.35 7.31,-15.2 l 3,-0.34 c 0.72,-0.51 0.5,-2.66 -0.25,-3 -5.97,0.22 -10.06,0.34 -14.84,0.34 -5.02,0 -9.1,-0.12 -15.09,-0.34 -0.71,0.34 -0.95,2.26 -0.25,3 l 2.99,0.34 c 7.08,0.85 7.33,2.51 7.33,15.2"
         style="fill:#000066;fill-opacity:1;fill-rule:nonzero;stroke:none"
         id="path3401"
         inkscape:connector-curvature="0" /><path
         d="m 2527.79,1523.06 c 0,-3.59 0,-17.87 0.36,-20.98 -0.25,-0.71 -0.97,-1.31 -2.28,-1.31 -1.44,2.02 -4.93,6.2 -15.34,18.07 l -27.79,31.64 c -3.24,3.7 -11.39,13.52 -13.89,16.15 l -0.23,0 c -0.49,-1.44 -0.62,-4.18 -0.62,-7.77 l 0,-26.11 c 0,-5.66 0.24,-21.21 2.16,-24.81 0.84,-1.32 3.11,-2.03 6.12,-2.27 l 3.71,-0.34 c 0.7,-0.96 0.6,-2.41 -0.25,-3 -5.38,0.22 -9.58,0.34 -14.01,0.34 -5.03,0 -8.27,-0.12 -12.46,-0.34 -0.84,0.59 -0.97,2.26 -0.24,3 l 3.25,0.34 c 2.75,0.24 4.66,1.07 5.25,2.39 1.7,4.32 1.57,18.95 1.57,24.69 l 0,34.59 c 0,3.38 -0.14,5.9 -2.64,8.65 -1.67,1.68 -4.55,2.52 -7.43,2.88 l -2.04,0.21 c -0.71,0.76 -0.71,2.55 0.24,3.01 5.05,-0.36 11.39,-0.36 13.54,-0.36 1.91,0 3.94,0.12 5.51,0.36 2.39,-6.1 16.66,-21.94 20.49,-26.35 l 11.62,-13.05 c 8.14,-9.34 14.12,-15.92 19.76,-21.7 l 0.24,0 c 0.48,0.61 0.48,2.52 0.48,5.05 l 0,25.63 c 0,5.64 -0.13,21.19 -2.39,24.81 -0.75,1.07 -2.63,1.79 -7.44,2.39 l -2.04,0.21 c -0.82,0.76 -0.71,2.65 0.26,3.01 5.48,-0.24 9.59,-0.36 14.13,-0.36 5.14,0 8.27,0.12 12.32,0.36 0.97,-0.61 0.97,-2.25 0.25,-3.01 l -1.69,-0.21 c -3.82,-0.6 -6.22,-1.57 -6.69,-2.53 -2.04,-4.32 -1.79,-19.16 -1.79,-24.67"
         style="fill:#000066;fill-opacity:1;fill-rule:nonzero;stroke:none"
         id="path3403"
         inkscape:connector-curvature="0" /><path
         d="m 2569.13,1563.75 c 0,12.47 -0.25,14.27 -7.3,15.12 l -1.94,0.2 c -0.7,0.51 -0.45,2.66 0.25,3.02 5.13,-0.24 9.22,-0.36 14.13,-0.36 l 22.53,0 c 7.66,0 14.73,0 16.18,0.36 0.7,-2.03 1.41,-10.66 1.91,-15.95 -0.5,-0.7 -2.4,-0.95 -3,-0.22 -1.79,5.63 -2.88,9.82 -9.11,11.37 -2.5,0.6 -6.33,0.73 -11.61,0.73 l -8.62,0 c -3.59,0 -3.59,-0.25 -3.59,-4.79 l 0,-23.96 c 0,-3.36 0.37,-3.36 3.96,-3.36 l 6.95,0 c 5.02,0 8.73,0.23 10.17,0.71 1.42,0.5 2.25,1.18 2.85,4.2 l 0.97,4.91 c 0.6,0.71 2.64,0.71 3.13,-0.11 0,-2.88 -0.49,-7.54 -0.49,-12.09 0,-4.32 0.49,-8.88 0.49,-11.51 -0.49,-0.82 -2.53,-0.82 -3.13,-0.14 l -1.08,4.71 c -0.49,2.13 -1.32,3.93 -3.71,4.54 -1.68,0.48 -4.55,0.6 -9.2,0.6 l -6.95,0 c -3.59,0 -3.96,-0.12 -3.96,-3.24 l 0,-16.9 c 0,-6.34 0.37,-10.43 2.28,-12.46 1.43,-1.43 3.93,-2.75 14.47,-2.75 9.24,0 12.7,0.47 15.33,1.79 2.17,1.21 5.41,5.39 8.51,11.62 0.86,0.61 2.5,0.26 3,-0.83 -0.84,-4.2 -3.84,-13.41 -5.38,-16.64 -10.79,0.23 -21.46,0.35 -32.1,0.35 l -10.8,0 c -5.14,0 -9.22,-0.12 -16.28,-0.35 -0.73,0.35 -0.95,2.27 -0.26,3 l 3.97,0.34 c 6.83,0.6 7.43,2.4 7.43,14.98"
         style="fill:#000066;fill-opacity:1;fill-rule:nonzero;stroke:none"
         id="path3405"
         inkscape:connector-curvature="0" /><path
         d="m 365.555,994.91 c -31.828,-7.808 -67.258,-16.82 -124.289,-16.82 -111.68,0 -240.769906,56.43 -240.769906,214.95 0,145.91 102.058906,218.55 240.171906,218.55 42.629,0 84.059,-9.61 124.289,-21.62 l -9.012,-90.65 c -36.019,19.81 -70.847,29.42 -109.269,29.42 -79.25,0 -130.899,-57.64 -130.899,-135.7 0,-82.27 58.25,-132.09 139.911,-132.09 36.617,0 73.839,9.6 104.468,21.62"
         style="fill:#000066;fill-opacity:1;fill-rule:nonzero;stroke:none"
         id="path3407"
         inkscape:connector-curvature="0" /><path
         d="m 427.156,1404.39 111.68,0 0,-336.23 172.93,0 0,-82.851 -284.61,0"
         style="fill:#000066;fill-opacity:1;fill-rule:nonzero;stroke:none"
         id="path3409"
         inkscape:connector-curvature="0" /><path
         d="m 784.336,985.309 111.672,0 0,419.082 -111.672,0 0,-419.082 z"
         style="fill:#000066;fill-opacity:1;fill-rule:nonzero;stroke:none"
         id="path3411"
         inkscape:connector-curvature="0" /><path
         d="m 974.168,1404.39 175.922,0 88.86,-278.59 1.2,0 93.06,278.59 169.33,0 0,-419.081 -109.29,0 1.8,321.811 -1.19,0 -106.88,-321.811 -102.68,0 -102.06,321.811 -1.19,0 2.39,-321.811 -109.272,0"
         style="fill:#000066;fill-opacity:1;fill-rule:nonzero;stroke:none"
         id="path3413"
         inkscape:connector-curvature="0" /><path
         d="m 1744.18,1317.94 -1.2,0 -54.04,-163.93 105.06,0 -49.82,163.93 z m -68.45,86.45 136.9,0 161.51,-419.089 -122.48,0 -31.22,89.459 -157.3,0 -33.03,-89.459 -113.48,0"
         style="fill:#000066;fill-opacity:1;fill-rule:nonzero;stroke:none"
         id="path3415"
         inkscape:connector-curvature="0" /><path
         d="m 2045.67,1321.54 -103.27,0 0,82.85 318.21,0 0,-82.85 -103.27,0 0,-336.231 -111.67,0"
         style="fill:#000066;fill-opacity:1;fill-rule:nonzero;stroke:none"
         id="path3417"
         inkscape:connector-curvature="0" /><path
         d="m 2320.53,1404.39 295.41,0 0,-79.26 -183.73,0 0,-86.44 173.52,0 0,-79.26 -173.52,0 0,-94.86 190.33,0 0,-79.261 -302.01,0"
         style="fill:#000066;fill-opacity:1;fill-rule:nonzero;stroke:none"
         id="path3419"
         inkscape:connector-curvature="0" /><path
         d="m 1133.32,486.539 c -31.83,-7.809 -67.25,-16.82 -124.29,-16.82 -111.682,0 -240.764,56.429 -240.764,214.949 0,145.891 102.07,218.551 240.164,218.551 42.62,0 84.06,-9.61 124.28,-21.617 l -9,-90.653 c -36.02,19.813 -70.85,29.422 -109.28,29.422 -79.242,0 -130.895,-57.66 -130.895,-135.703 0,-82.27 58.25,-132.09 139.915,-132.09 36.62,0 73.84,9.602 104.47,21.621"
         style="fill:#000066;fill-opacity:1;fill-rule:nonzero;stroke:none"
         id="path3421"
         inkscape:connector-curvature="0" /><path
         d="m 1207.27,896.012 111.67,0 0,-160.313 132.08,0 0,160.313 111.68,0 0,-419.082 -111.68,0 0,179.511 -132.08,0 0,-179.511 -111.67,0"
         style="fill:#000066;fill-opacity:1;fill-rule:nonzero;stroke:none"
         id="path3423"
         inkscape:connector-curvature="0" /><path
         d="m 1831.86,809.539 -1.2,0 -54.03,-163.91 105.06,0 -49.83,163.91 z m -68.45,86.461 136.89,0 161.52,-419.082 -122.48,0 -31.23,89.461 -157.31,0 -33.02,-89.461 -113.48,0"
         style="fill:#000066;fill-opacity:1;fill-rule:nonzero;stroke:none"
         id="path3425"
         inkscape:connector-curvature="0" /><path
         d="m 2088.55,896.012 142.31,0 141.69,-284.594 1.22,0 -1.81,284.594 102.08,0 0,-419.082 -138.7,0 -146.51,286.379 -1.19,0 3.6,-286.379 -102.69,0"
         style="fill:#000066;fill-opacity:1;fill-rule:nonzero;stroke:none"
         id="path3427"
         inkscape:connector-curvature="0" /><path
         d="m 2946.45,488.918 c -70.85,-18.008 -123.68,-19.199 -162.11,-19.199 -111.68,0 -240.76,56.429 -240.76,214.941 0,157.91 111.06,218.559 264.78,218.559 27.62,0 85.85,-3.008 126.68,-18.617 l -9,-91.25 c -34.83,20.386 -75.65,27.019 -102.08,27.019 -90.66,0 -165.11,-37.84 -165.11,-135.711 0,-82.262 58.24,-132.09 139.9,-132.09 15.01,0 29.42,2.399 39.63,7.211 l 0,82.848 -65.45,0 0,79.262 173.52,0"
         style="fill:#000066;fill-opacity:1;fill-rule:nonzero;stroke:none"
         id="path3429"
         inkscape:connector-curvature="0" /><path
         d="m 3011.21,896.012 295.4,0 0,-79.262 -183.72,0 0,-86.441 173.51,0 0,-79.258 -173.51,0 0,-94.86 190.32,0 0,-79.261 -302,0"
         style="fill:#000066;fill-opacity:1;fill-rule:nonzero;stroke:none"
         id="path3431"
         inkscape:connector-curvature="0" /><path
         d="m 791.477,7.14063 55.3516,0 0,386.449 -55.3516,0 0,-386.449 z"
         style="fill:#82e3ff;fill-opacity:1;fill-rule:nonzero;stroke:none"
         id="path3433"
         inkscape:connector-curvature="0" /><path
         d="m 944.828,393.59 75.302,0 170.51,-311.1486 1.11,0 0,311.1486 55.37,0 0,-386.44937 -70.87,0 -174.95,317.80037 -1.11,0 0,-317.80037 -55.362,0"
         style="fill:#82e3ff;fill-opacity:1;fill-rule:nonzero;stroke:none"
         id="path3435"
         inkscape:connector-curvature="0" /><path
         d="m 1520.6,335.461 c -28.24,11.047 -43.73,16.039 -72.52,16.039 -31,0 -67.55,-11.059 -67.55,-51.492 0,-74.18 166.1,-57.008 166.1,-184.348 0,-82.492 -63.68,-115.16 -141.18,-115.16 -27.15,0 -53.7,7.75 -79.17,16.0508 l 5.52,51.5078 c 18.84,-7.7773 52.05,-18.8281 80.28,-18.8281 31.56,0 75.86,17.6875 75.86,63.0975 0,86.352 -166.09,62.582 -166.09,182.703 0,68.649 54.26,105.199 124.01,105.199 25.47,0 55.92,-4.421 82.49,-13.851"
         style="fill:#82e3ff;fill-opacity:1;fill-rule:nonzero;stroke:none"
         id="path3437"
         inkscape:connector-curvature="0" /><path
         d="m 1698.87,344.879 -120.13,0 0,48.711 295.63,0 0,-48.711 -120.13,0 0,-337.73056 -55.37,0"
         style="fill:#82e3ff;fill-opacity:1;fill-rule:nonzero;stroke:none"
         id="path3439"
         inkscape:connector-curvature="0" /><path
         d="m 1929.73,7.14063 55.3711,0 0,386.449 -55.3711,0 0,-386.449 z"
         style="fill:#82e3ff;fill-opacity:1;fill-rule:nonzero;stroke:none"
         id="path3441"
         inkscape:connector-curvature="0" /><path
         d="m 2160.61,344.879 -120.15,0 0,48.711 295.64,0 0,-48.711 -120.14,0 0,-337.73056 -55.35,0"
         style="fill:#82e3ff;fill-opacity:1;fill-rule:nonzero;stroke:none"
         id="path3443"
         inkscape:connector-curvature="0" /><path
         d="M 2692.09,167.141 C 2692.09,58.6211 2637.28,0.5 2542.05,0.5 c -95.21,0 -150.04,58.1211 -150.04,166.641 l 0,226.449 55.37,0 0,-219.238 c 0,-74.204 23.25,-125.1215 94.67,-125.1215 71.43,0 94.66,50.9175 94.66,125.1215 l 0,219.238 55.38,0"
         style="fill:#82e3ff;fill-opacity:1;fill-rule:nonzero;stroke:none"
         id="path3445"
         inkscape:connector-curvature="0" /><path
         d="m 2868.15,344.879 -120.16,0 0,48.711 295.66,0 0,-48.711 -120.15,0 0,-337.73056 -55.35,0"
         style="fill:#82e3ff;fill-opacity:1;fill-rule:nonzero;stroke:none"
         id="path3447"
         inkscape:connector-curvature="0" /><path
         d="m 3101.76,393.59 216.48,0 0,-48.711 -161.11,0 0,-112.949 146.72,0 0,-48.731 -146.72,0 0,-127.3396 161.11,0 0,-48.71877 -216.48,0"
         style="fill:#82e3ff;fill-opacity:1;fill-rule:nonzero;stroke:none"
         id="path3449"
         inkscape:connector-curvature="0" /><path
         d="m 3401.46,1043.64 c 93.05,0 182.25,20.77 265.11,61.72 78.81,38.93 148.69,95.5 203.93,164.78 -39.86,-33.54 -86.92,-61.17 -140.43,-82.36 -72.3,-28.62 -155.94,-43.76 -241.88,-43.76 -17.3,0 -34.8,0.63 -52.06,1.85 -0.49,0.03 -0.95,0.1 -1.43,0.13 -16.87,-52.08 -31.42,-84.76 -47.15,-102.16 4.96,-0.13 9.54,-0.2 13.91,-0.2"
         style="fill:#82e3ff;fill-opacity:1;fill-rule:nonzero;stroke:none"
         id="path3451"
         inkscape:connector-curvature="0" /><path
         d="m 3946.48,1390.73 c 0,0.01 0,0.01 0.01,0.02 9.92,57.51 2.01,120.53 -19.96,184.3 21.91,-63.66 29.79,-126.81 19.95,-184.32"
         style="fill:#82e3ff;fill-opacity:1;fill-rule:nonzero;stroke:none"
         id="path3453"
         inkscape:connector-curvature="0" /><path
         d="m 3482.03,2216.03 c 54.9,-3.88 109.95,-19.55 159.23,-45.34 l 1.11,-0.61 c 36.91,-19.56 69.15,-43.77 95.84,-71.95 8.84,-9.35 17.05,-19.13 24.4,-29.06 29.35,-39.71 46.72,-83.73 50.22,-127.32 0.17,-2.1 0.15,-4.17 0.25,-6.27 68.85,-35.38 122.38,-80.7 156.46,-132.32 -1.58,19.45 -4.53,38.16 -8.91,55.52 -19.14,49.61 -44.97,96.6 -76.74,139.66 -4.5,6.05 -9.09,12.02 -13.68,17.74 -53.69,67.04 -122.69,122.86 -199.53,161.42 -64.39,32.33 -133.61,52.37 -205.79,59.85 4.23,-6.07 8.57,-13.46 12.36,-21.15 1.6,-0.09 3.2,-0.06 4.78,-0.17"
         style="fill:#000066;fill-opacity:1;fill-rule:nonzero;stroke:none"
         id="path3455"
         inkscape:connector-curvature="0" /><path
         d="m 3505.39,2113.94 c 0.59,-0.02 1.16,-0.01 1.77,-0.05 12.28,-0.68 24.66,-2.67 36.77,-5.94 11.03,-2.97 21.67,-6.94 31.64,-11.76 0.89,-0.44 1.71,-1 2.61,-1.45 20.5,25.18 39.21,45.57 55.34,60.77 -46.42,24.2 -97.81,39.06 -148.91,43.2 7.94,-21.67 14.94,-49.98 20.78,-84.77"
         style="fill:#000066;fill-opacity:1;fill-rule:nonzero;stroke:none"
         id="path3457"
         inkscape:connector-curvature="0" /><path
         d="m 2886.14,1433.87 c -37.41,50.61 -64.56,104.08 -81,159.38 6.36,-78.1 28.09,-155 63.56,-224.31 1.92,-3.74 3.93,-7.45 5.96,-11.17 l 1.14,-2.19 1.59,-2.95 c 4.09,-7.37 8.61,-15.06 14.23,-24.18 5.49,-8.92 10.72,-16.99 16,-24.71 1.66,-2.42 3.36,-4.8 5.09,-7.19 l 1.73,-2.41 c 4.52,-6.33 9.17,-12.58 13.82,-18.59 3.6,-4.64 7.28,-9.23 11.02,-13.77 3.59,-4.37 7.26,-8.65 10.95,-12.91 5.72,-6.55 11.02,-12.39 16.19,-17.87 1.86,-1.97 3.75,-3.92 5.65,-5.86 l 1.2,-1.22 c 8.01,-8.22 15.49,-15.51 22.87,-22.31 l 0.71,-0.64 0.42,-0.38 c 33.69,-30.85 70.93,-57.84 110.66,-80.21 81.91,-46.12 175.07,-72.48 269.4,-76.22 3.65,-0.14 7,-0.24 10.24,-0.33 15.71,17.4 30.26,50.09 47.13,102.17 -107.02,7.75 -214.42,38.43 -310.72,88.83 -96.8,50.64 -179.04,119.47 -237.84,199.04"
         style="fill:#000066;fill-opacity:1;fill-rule:nonzero;stroke:none"
         id="path3459"
         inkscape:connector-curvature="0" /><path
         d="m 3522.55,1911.14 c -0.44,0.04 -0.87,0.02 -1.31,0.07 -9.73,0.98 -19.45,2.78 -28.89,5.33 -10.43,2.81 -20.56,6.52 -30.14,11.05 -19.3,9.11 -36.32,21.53 -49.2,35.93 -13.64,15.23 -22.5,32.43 -25.67,49.77 -62.67,-3.78 -123.75,-13.37 -181.54,-28 0.02,-0.05 0.02,-0.1 0.02,-0.16 3.25,-40.4 19.48,-81.38 46.94,-118.52 28.56,-38.62 68.54,-72.07 115.62,-96.72 47.21,-24.69 99.92,-39.71 152.48,-43.43 l 0.06,0 c 2.6,63.29 3.21,125.62 1.63,184.68"
         style="fill:#000066;fill-opacity:1;fill-rule:nonzero;stroke:none"
         id="path3461"
         inkscape:connector-curvature="0" /><path
         d="m 3028.8,1660.27 c 49.33,-66.74 118.47,-124.55 199.95,-167.21 81.6,-42.68 172.64,-68.64 263.28,-75.05 14.49,-1.01 29.18,-1.53 43.68,-1.53 72.38,0 142.62,12.68 203.16,36.64 0.71,0.28 1.38,0.63 2.09,0.91 -11.28,89.02 -35.78,184.13 -71.41,276.82 -36.92,-14.58 -79.38,-22.3 -122.84,-22.3 -8.98,0 -18.08,0.32 -27.04,0.96 -54.88,3.88 -109.91,19.55 -159.14,45.32 -49.37,25.83 -91.36,60.99 -121.44,101.67 -28.7,38.82 -45.84,81.75 -49.85,124.36 -92.39,-25.22 -175.5,-63.35 -242.08,-110.97 0.09,-1.24 0.05,-2.46 0.14,-3.69 5.68,-70.28 33.84,-141.49 81.5,-205.93"
         style="fill:#000066;fill-opacity:1;fill-rule:nonzero;stroke:none"
         id="path3463"
         inkscape:connector-curvature="0" /><path
         d="m 3404.62,2014.16 c 2.93,-13.52 10.08,-27.07 21.04,-39.31 11.39,-12.72 26.55,-23.76 43.8,-31.9 8.67,-4.09 17.84,-7.45 27.31,-10 8.21,-2.23 16.69,-3.78 25.21,-4.7 -1,29.1 -2.45,57.46 -4.59,84.47 -37.85,2.71 -75.53,3.05 -112.77,1.44"
         style="fill:#000066;fill-opacity:1;fill-rule:nonzero;stroke:none"
         id="path3465"
         inkscape:connector-curvature="0" /><path
         d="m 3926.53,1575.05 c -42.4,-59.82 -104.91,-107.45 -181.4,-137.73 -62.59,-24.79 -134.67,-37.9 -208.43,-37.9 -15.15,0 -30.57,0.55 -45.86,1.64 -92.95,6.56 -186.29,33.16 -269.95,76.93 -82.73,43.3 -153.07,101.94 -203.78,169.66 -55.81,-67.28 -97.84,-135.72 -120.12,-199.73 0.96,-1.31 1.85,-2.64 2.81,-3.94 57.29,-77.51 137.52,-144.62 232.05,-194.1 94.67,-49.54 200.29,-79.64 305.47,-87.07 16.85,-1.19 33.95,-1.78 50.81,-1.78 83.87,0 165.36,14.71 235.69,42.55 87.22,34.55 156.61,86.71 206.3,155.13 l 1.57,2.01 c 5.24,9.85 10.11,19.89 14.79,30.01 9.84,57.51 1.96,120.66 -19.95,184.32"
         style="fill:#000066;fill-opacity:1;fill-rule:nonzero;stroke:none"
         id="path3467"
         inkscape:connector-curvature="0" /><path
         d="m 3578.18,2094.74 c 20.9,-10.57 38.66,-24.75 51.32,-41.32 13.76,-17.99 20.94,-37.75 20.76,-57.17 -0.05,-6.39 -0.89,-12.76 -2.53,-18.94 -3.36,-12.36 -9.75,-23.56 -18.98,-33.26 -12.39,-13.01 -29.57,-22.85 -49.73,-28.44 -12.67,-3.51 -26.26,-5.29 -40.4,-5.29 -5.29,0 -10.7,0.32 -16.07,0.82 1.58,-59.07 0.96,-121.39 -1.64,-184.68 8.37,-0.59 16.87,-0.89 25.25,-0.89 41.82,0 82.43,7.32 117.39,21.17 43.56,17.25 78.86,44.41 102.09,78.53 l 0.73,1.08 c 19.65,29.3 30.07,63.45 30.13,98.76 0.01,5.04 -0.2,10.19 -0.61,15.28 -3.25,40.42 -19.5,81.42 -46.96,118.57 -28.14,38.07 -67.52,71.18 -113.9,95.75 l -0.82,0.46 c -0.23,0.12 -0.48,0.22 -0.7,0.34 -16.12,-15.2 -34.83,-35.59 -55.33,-60.77"
         style="fill:#82e3ff;fill-opacity:1;fill-rule:nonzero;stroke:none"
         id="path3469"
         inkscape:connector-curvature="0" /><path
         d="m 3387.26,2013.54 c -2.05,11.52 -1.62,22.83 1.29,33.63 1.96,7.26 5.08,14.29 9.27,20.88 10.12,15.91 26.3,28.57 46.75,36.57 15.92,6.24 34.3,9.55 53.17,9.55 2.54,0 5.09,-0.11 7.65,-0.23 -5.84,34.79 -12.84,63.1 -20.79,84.77 -1.25,0.1 -2.51,0.28 -3.77,0.37 -8.41,0.59 -16.96,0.9 -25.39,0.9 -41.6,0 -82.01,-7.26 -116.87,-21 -43.19,-17.01 -78.36,-43.81 -101.68,-77.46 l -2.34,-3.42 c -22.03,-33.4 -31.97,-72.41 -28.75,-112.81 57.78,14.63 118.86,24.22 181.53,28 -0.03,0.08 -0.05,0.17 -0.07,0.25"
         style="fill:#82e3ff;fill-opacity:1;fill-rule:nonzero;stroke:none"
         id="path3471"
         inkscape:connector-curvature="0" /><path
         d="m 3538.6,1927.32 c 12.63,0 24.7,1.57 35.86,4.68 17.21,4.76 31.71,12.99 41.97,23.77 7.28,7.64 12.28,16.38 14.87,25.96 1.27,4.71 1.93,9.64 1.97,14.66 0.12,15.6 -5.84,31.75 -17.29,46.71 -11.59,15.19 -28.12,28.25 -47.82,37.78 -9.02,4.37 -18.65,7.95 -28.65,10.66 -10.98,2.95 -22.18,4.76 -33.3,5.38 -2.83,0.17 -5.66,0.23 -8.44,0.23 -16.79,0 -33.04,-2.88 -46.98,-8.35 -17.08,-6.69 -30.44,-17.03 -38.63,-29.87 -3.25,-5.12 -5.68,-10.57 -7.2,-16.18 -2.25,-8.38 -2.57,-17.2 -0.96,-26.21 0.14,-0.79 0.46,-1.58 0.63,-2.37 37.23,1.61 74.92,1.27 112.76,-1.44 2.15,-27.01 3.59,-55.37 4.59,-84.47 0.32,-0.04 0.65,-0.11 0.98,-0.14 5.21,-0.53 10.47,-0.8 15.64,-0.8"
         style="fill:#82e3ff;fill-opacity:1;fill-rule:nonzero;stroke:none"
         id="path3473"
         inkscape:connector-curvature="0" /><path
         d="m 3813.08,1935.48 c 2.11,-42.45 -8.96,-83.29 -32.54,-118.54 -0.28,-0.38 -6.83,-9.45 -9.52,-12.87 -24.89,-31.49 -59.89,-56.78 -101.22,-73.13 -0.09,-0.04 -0.17,-0.06 -0.26,-0.1 35.63,-92.68 60.13,-187.79 71.41,-276.82 74.6,29.98 135.22,76.85 175.33,135.78 l 0.74,1.06 c 37.53,55.67 56.53,125.83 53.49,197.55 -0.21,4.97 -0.57,9.86 -0.97,14.75 -34.08,51.62 -87.61,96.94 -156.47,132.32"
         style="fill:#82e3ff;fill-opacity:1;fill-rule:nonzero;stroke:none"
         id="path3475"
         inkscape:connector-curvature="0" /><path
         d="m 3015.12,1650.16 c -49.53,66.99 -78.84,141.22 -84.76,214.67 -5.75,71.52 10.97,140.62 48.48,200.68 -10.86,-10.78 -21.11,-21.79 -30.7,-32.92 -82.85,-96.2 -132.27,-213.8 -142.89,-340.09 -0.09,-0.99 -0.14,-1.98 -0.2,-2.97 l -0.14,-2.26 0.12,-1.69 0.16,-2.33 c 6.43,-80.21 38.18,-161.47 91.79,-235.33 22.29,64.02 64.31,132.45 120.12,199.73 -0.64,0.85 -1.35,1.66 -1.98,2.51"
         style="fill:#82e3ff;fill-opacity:1;fill-rule:nonzero;stroke:none"
         id="path3477"
         inkscape:connector-curvature="0" /><path
         d="m 3946.49,1390.75 c 36.08,78.25 55.12,164.31 55.12,250.95 0,33.36 -2.81,66.93 -8.32,99.78 -1.58,9.32 -3.4,18.72 -5.47,28.19 -0.72,-68.42 -20.53,-134.58 -56.61,-188.16 l -1.62,-2.38 c -0.96,-1.4 -2.08,-2.7 -3.06,-4.08 21.97,-63.77 29.88,-126.79 19.96,-184.3"
         style="fill:#82e3ff;fill-opacity:1;fill-rule:nonzero;stroke:none"
         id="path3479"
         inkscape:connector-curvature="0" /><path
         d="m 3188.88,1983.76 c -3.62,44.74 7.51,87.87 32.3,124.92 l 0.78,1.13 1.52,2.21 c 25.26,36.05 62.9,64.67 108.86,82.78 36.83,14.51 79.37,22.17 123.05,22.17 7.27,0 14.57,-0.35 21.86,-0.77 -3.8,7.69 -8.14,15.07 -12.36,21.14 -2.51,0.27 -5,0.63 -7.5,0.86 -20.25,1.86 -38.26,2.76 -55.04,2.76 -65.46,0 -129.98,-10.59 -191.77,-31.45 -58.37,-19.71 -110.76,-46.46 -155.72,-79.53 -26.06,-19.17 -35.65,-33.88 -46.73,-50.9 -2.3,-3.52 -4.64,-7.12 -7.19,-10.85 l -0.87,-1.27 c -39.62,-58.23 -57.8,-126.31 -52.93,-197.08 66.59,47.62 149.7,85.75 242.09,110.97 -0.1,0.97 -0.27,1.94 -0.35,2.91"
         style="fill:#82e3ff;fill-opacity:1;fill-rule:nonzero;stroke:none"
         id="path3481"
         inkscape:connector-curvature="0" /></g></g></svg>